<?xml version="1.0" ?><!DOCTYPE svg  PUBLIC '-//W3C//DTD SVG 1.1//EN'  'http://www.w3.org/Graphics/SVG/1.1/DTD/svg11.dtd'><svg height="8.4666mm" style="shape-rendering:geometricPrecision; text-rendering:geometricPrecision; image-rendering:optimizeQuality; fill-rule:evenodd; clip-rule:evenodd" version="1.1" viewBox="0 0 846.66 846.66" width="8.4666mm" xml:space="preserve" xmlns="http://www.w3.org/2000/svg" xmlns:xlink="http://www.w3.org/1999/xlink"><defs><style type="text/css">
   <![CDATA[
    .fil0 {fill:black;fill-rule:nonzero}
   ]]>
  </style></defs><g id="Layer_x0020_1"><path class="fil0" d="M64.19 224.71l23.41 0 0.07 -94.62c0,-12.88 11.68,-22.72 24.46,-20.38l627.66 115 42.68 0c31.17,0 56.69,25.53 56.69,56.69 0,133.07 0,266.13 0,399.2 0,31.18 -25.53,56.7 -56.69,56.7l-718.28 0c-31.18,0 -56.69,-25.54 -56.69,-56.7 0,-133.07 0,-266.13 0,-399.2 0,-31.18 25.54,-56.69 56.69,-56.69zm64.99 0l380.66 0 -380.66 -69.75 0 69.75zm598.17 216.8c-27.34,0 -27.34,-41.58 0,-41.58l70.24 0 0 -118.53c0,-8.34 -6.79,-15.11 -15.12,-15.11l-718.28 0c-8.3,0 -15.11,6.78 -15.11,15.11l0 118.53 70.23 0c27.35,0 27.35,41.58 0,41.58l-70.23 0 0 78.99 70.23 0c27.35,0 27.35,41.58 0,41.58l-70.23 0 0 118.52c0,8.31 6.78,15.12 15.11,15.12l718.28 0c8.34,0 15.12,-6.78 15.12,-15.12l0 -118.52 -70.24 0c-27.34,0 -27.34,-41.58 0,-41.58l70.24 0 0 -78.99 -70.24 0zm-324.81 -94.19c0,-27.34 41.58,-27.34 41.58,0l0 17.34 21.47 0c27.35,0 27.35,41.58 0,41.58l-21.47 0 0 53.97 21.47 0c40.01,0 68.19,29.62 68.19,68.57 0,38.95 -28.18,68.56 -68.19,68.56l-21.47 0 0 17.35c0,27.34 -41.58,27.34 -41.58,0l0 -17.35 -21.47 0c-27.35,0 -27.35,-41.57 0,-41.57l21.47 0 0 -53.98 -21.47 0c-40.01,0 -68.19,-29.62 -68.19,-68.56 0,-38.96 28.18,-68.57 68.19,-68.57l21.47 0 0 -17.34zm41.58 154.47l0 53.98 21.47 0c16.57,0 26.62,-11.07 26.62,-26.99 0,-15.92 -10.05,-26.99 -26.62,-26.99l-21.47 0zm-41.58 -41.58l0 -53.97 -21.47 0c-16.57,0 -26.62,11.07 -26.62,26.99 0,15.91 10.05,26.98 26.62,26.98l21.47 0z"/></g></svg>