<?xml version="1.0" encoding="UTF-8" standalone="no" ?>
<!DOCTYPE svg PUBLIC "-//W3C//DTD SVG 1.1//EN" "http://www.w3.org/Graphics/SVG/1.1/DTD/svg11.dtd">
<svg xmlns="http://www.w3.org/2000/svg" xmlns:xlink="http://www.w3.org/1999/xlink" version="1.1" width="50" height="40" viewBox="0 0 50 40" xml:space="preserve">
<desc>Created with Fabric.js 3.6.6</desc>
<defs>
</defs>
<g transform="matrix(0.04 0 0 0.04 25.74 18.89)" id="Layer_x0020_1"  >
<path style="stroke: none; stroke-width: 1; stroke-dasharray: none; stroke-linecap: butt; stroke-dashoffset: 0; stroke-linejoin: miter; stroke-miterlimit: 4; fill: rgb(255,255,255); fill-rule: nonzero; opacity: 1;"  transform=" translate(-423.33, -423.33)" d="M 64.19 224.71 l 23.41 0 l 0.07 -94.62 c 0 -12.88 11.68 -22.72 24.46 -20.38 l 627.66 115 l 42.68 0 c 31.17 0 56.69 25.53 56.69 56.69 c 0 133.07 0 266.13 0 399.2 c 0 31.18 -25.53 56.7 -56.69 56.7 l -718.28 0 c -31.18 0 -56.69 -25.54 -56.69 -56.7 c 0 -133.07 0 -266.13 0 -399.2 c 0 -31.18 25.54 -56.69 56.69 -56.69 z m 64.99 0 l 380.66 0 l -380.66 -69.75 l 0 69.75 z m 598.17 216.8 c -27.34 0 -27.34 -41.58 0 -41.58 l 70.24 0 l 0 -118.53 c 0 -8.34 -6.79 -15.11 -15.12 -15.11 l -718.28 0 c -8.3 0 -15.11 6.78 -15.11 15.11 l 0 118.53 l 70.23 0 c 27.35 0 27.35 41.58 0 41.58 l -70.23 0 l 0 78.99 l 70.23 0 c 27.35 0 27.35 41.58 0 41.58 l -70.23 0 l 0 118.52 c 0 8.31 6.78 15.12 15.11 15.12 l 718.28 0 c 8.34 0 15.12 -6.78 15.12 -15.12 l 0 -118.52 l -70.24 0 c -27.34 0 -27.34 -41.58 0 -41.58 l 70.24 0 l 0 -78.99 l -70.24 0 z m -324.81 -94.19 c 0 -27.34 41.58 -27.34 41.58 0 l 0 17.34 l 21.47 0 c 27.35 0 27.35 41.58 0 41.58 l -21.47 0 l 0 53.97 l 21.47 0 c 40.01 0 68.19 29.62 68.19 68.57 c 0 38.95 -28.18 68.56 -68.19 68.56 l -21.47 0 l 0 17.35 c 0 27.34 -41.58 27.34 -41.58 0 l 0 -17.35 l -21.47 0 c -27.35 0 -27.35 -41.57 0 -41.57 l 21.47 0 l 0 -53.98 l -21.47 0 c -40.01 0 -68.19 -29.62 -68.19 -68.56 c 0 -38.96 28.18 -68.57 68.19 -68.57 l 21.47 0 l 0 -17.34 z m 41.58 154.47 l 0 53.98 l 21.47 0 c 16.57 0 26.62 -11.07 26.62 -26.99 c 0 -15.92 -10.05 -26.99 -26.62 -26.99 l -21.47 0 z m -41.58 -41.58 l 0 -53.97 l -21.47 0 c -16.57 0 -26.62 11.07 -26.62 26.99 c 0 15.91 10.05 26.98 26.62 26.98 l 21.47 0 z" stroke-linecap="round" />
</g>
</svg>